Coordinates
version=1
nRows=4
nColumns=40
inDegrees=yes

Units are S.I. units (second, meters, Newtons, ...)
If the header above contains a line with 'inDegrees', this indicates whether rotational values are in degrees (yes) or radians (no).

endheader
time	pelvis_tilt	pelvis_list	pelvis_rotation	pelvis_tx	pelvis_ty	pelvis_tz	hip_flexion_r	hip_adduction_r	hip_rotation_r	knee_angle_r	knee_angle_r_beta	ankle_angle_r	subtalar_angle_r	mtp_angle_r	hip_flexion_l	hip_adduction_l	hip_rotation_l	knee_angle_l	knee_angle_l_beta	ankle_angle_l	subtalar_angle_l	mtp_angle_l	lumbar_extension	lumbar_bending	lumbar_rotation	arm_flex_r	arm_add_r	arm_rot_r	elbow_flex_r	pro_sup_r	wrist_flex_r	wrist_dev_r	arm_flex_l	arm_add_l	arm_rot_l	elbow_flex_l	pro_sup_l	wrist_flex_l	wrist_dev_l
     18.00000000000000000000	     24.11414511462740861703	    -26.51406754247103236821	    174.15511488331321743317	      0.35640022012113425909	      0.65586684922887317217	     -0.63594055936992066602	     97.06932293728492311402	      0.33028494876465008812	     26.85498732882332362237	     92.65737081888799764329	      1.61717619703090997874	     23.81059891797166017113	      0.00000000000000000000	      0.00000000000000000000	     80.01444368645279325847	    -11.00913200044504947073	    -30.76869722982766219843	     86.29972259898875108775	      1.50621430291011182412	     26.80566623927101588265	      0.00000000000000000000	      0.00000000000000000000	    -49.78210969483107106726	    -28.05542268906170022547	    -29.14732627537436826515	     58.27390962022934672859	      3.42501757620991531539	     46.06987656282063881008	      6.98184480450374778115	      8.34887199105522270770	      0.00000000000000000000	      0.00000000000000000000	    -89.88955342957761729394	   -119.93052020051001704815	    -70.63941145791099529561	     60.25596516064604202256	     59.97514805715422170351	      0.00000000000000000000	      0.00000000000000000000
     18.00499999999999900524	     24.41438534281722994024	    -26.47581873434680943546	    174.02834180970370425712	      0.35694677093456617101	      0.65528517151844067889	     -0.63632211949294503750	     97.30667156851801280482	      0.74771669861671863355	     26.86021216054375315707	     92.56391815172139558854	      1.61554514029408258224	     23.65708664618588485951	      0.00000000000000000000	      0.00000000000000000000	     80.33288546187517908947	    -11.36844912231656756774	    -30.75484231379836330689	     86.35836535806892300116	      1.50723781213851459881	     26.67360253792739399614	      0.00000000000000000000	      0.00000000000000000000	    -49.34425971298544055799	    -28.24722623886374606172	    -28.88279676631453440905	     58.18652493823823590446	      3.42184960079772171326	     46.16731372218141871144	      7.43344403982372092798	      4.82401665334228724191	      0.00000000000000000000	      0.00000000000000000000	    -89.88932914404681184806	   -119.93061047575025668266	    -70.72114127849268072623	     60.13008384967605479687	     62.59090588390021991927	      0.00000000000000000000	      0.00000000000000000000
     18.01000000000000156319	     24.46437783655735032085	    -26.45456862382355112118	    174.01240499537829009569	      0.35723014077584491766	      0.65554257130014281785	     -0.63630137268544084694	     97.29685411218358126462	      0.80631715521739411034	     26.87842261594515136380	     92.46161941518855087452	      1.61375969052095413758	     23.62079116379424448269	      0.00000000000000000000	      0.00000000000000000000	     80.37253888607445162506	    -11.40069720969199451588	    -30.73153123021820221084	     86.28565255971254543965	      1.50596873439885703405	     26.64402189084476546554	      0.00000000000000000000	      0.00000000000000000000	    -49.27994503347113663949	    -28.25494892880512409761	    -28.84111162784454407415	     58.19470063128135706165	      3.43732269703712711717	     46.00466687097529216999	      7.43600444689288941902	      4.91520033925574839628	      0.00000000000000000000	      0.00000000000000000000	    -89.88928137853770294896	   -119.93074125426977616371	    -70.68586023273928731214	     60.17221578137040438605	     61.70607779944152326834	      0.00000000000000000000	      0.00000000000000000000
     18.01500000000000056843	     24.41142255245384973250	    -26.43830982014661756807	    174.11045408123726474514	      0.35723883523875948898	      0.65611044061673817751	     -0.63601211682603697728	     97.21050368046658718413	      0.64731996000032943073	     26.88786632994944980624	     92.40173324259536968839	      1.61271447963278546922	     23.59573507195066710551	      0.00000000000000000000	      0.00000000000000000000	     80.27589026832517049570	    -11.22965142842378227783	    -30.71329206494738883748	     86.16501817171378263538	      1.50386326713715035019	     26.60740514514231236376	      0.00000000000000000000	      0.00000000000000000000	    -49.38266979109726406705	    -28.12612483614406855281	    -28.93244375292620063078	     58.25694913192848645167	      3.48899538625711524986	     45.59538788505439299570	      7.39733070087557376127	      5.01539282406837649830	      0.00000000000000000000	      0.00000000000000000000	    -89.88935515563741773803	   -119.93087503790472680976	    -70.67578004386479051391	     60.20737348925177201409	     60.96139485086560227955	      0.00000000000000000000	      0.00000000000000000000
